<svg viewBox="0 0 480 320" xmlns="http://www.w3.org/2000/svg">
  <defs>
    <linearGradient id="table3" x1="0" y1="0" x2="0" y2="1">
      <stop offset="0" stop-color="#2f3690"/>
      <stop offset="1" stop-color="#0f1258"/>
    </linearGradient>
    <linearGradient id="p1" x1="0" y1="0" x2="0" y2="1">
      <stop offset="0" stop-color="#0f1258"/>
      <stop offset="1" stop-color="#090b35"/>
    </linearGradient>
    <linearGradient id="p2" x1="0" y1="0" x2="0" y2="1">
      <stop offset="0" stop-color="#3d47ab"/>
      <stop offset="1" stop-color="#2f3690"/>
    </linearGradient>
  </defs>

  <rect width="480" height="320" fill="#eef0fb"/>
  <ellipse cx="240" cy="272" rx="150" ry="16" fill="#0c0e46" opacity="0.08"/>

  <ellipse cx="240" cy="222" rx="142" ry="48" fill="#20265f"/>
  <ellipse cx="240" cy="212" rx="142" ry="48" fill="url(#table3)"/>

  <circle cx="240" cy="204" r="27" fill="#eef0fb"/>
  <circle cx="240" cy="204" r="27" fill="none" stroke="#e0b25a" stroke-width="4"/>
  <line x1="240" y1="204" x2="240" y2="188" stroke="#0f1258" stroke-width="3" stroke-linecap="round"/>
  <line x1="240" y1="204" x2="251" y2="204" stroke="#0f1258" stroke-width="3" stroke-linecap="round"/>

  <g>
    <ellipse cx="120" cy="222" rx="26" ry="8" fill="#0c0e46" opacity="0.1"/>
    <path d="M88 222 q0 -52 32 -57 q32 5 32 57z" fill="url(#p1)"/>
    <circle cx="120" cy="148" r="21" fill="#e0b25a"/>
    <path d="M100 138 q20 -18 40 0 q2 9 -5 8 q-15 -10 -30 0 q-7 1 -5 -8z" fill="#0c0e46"/>
  </g>

  <g>
    <ellipse cx="360" cy="222" rx="26" ry="8" fill="#0c0e46" opacity="0.1"/>
    <path d="M328 222 q0 -52 32 -57 q32 5 32 57z" fill="url(#p2)"/>
    <circle cx="360" cy="148" r="21" fill="#e0b25a"/>
    <path d="M340 138 q20 -18 40 0 q2 9 -5 8 q-15 -10 -30 0 q-7 1 -5 -8z" fill="#0c0e46"/>
  </g>

  <g>
    <ellipse cx="240" cy="180" rx="26" ry="8" fill="#0c0e46" opacity="0.1"/>
    <path d="M208 180 q0 -52 32 -57 q32 5 32 57z" fill="#090b35"/>
    <circle cx="240" cy="106" r="21" fill="#e0b25a"/>
    <path d="M220 96 q20 -18 40 0 q2 9 -5 8 q-15 -10 -30 0 q-7 1 -5 -8z" fill="#0c0e46"/>
  </g>

  <rect x="66" y="62" width="66" height="36" rx="12" fill="#c8952f"/>
  <path d="M88 98 l-9 15 l18 -11z" fill="#c8952f"/>

  <rect x="348" y="52" width="66" height="36" rx="12" fill="#ffffff" stroke="#d7dbf3" stroke-width="2"/>
  <path d="M370 88 l-9 15 l18 -11z" fill="#ffffff" stroke="#d7dbf3" stroke-width="2"/>
</svg>
